<svg width="100" height="34" viewBox="0 0 100 34" fill="none" xmlns="http://www.w3.org/2000/svg">
<rect width="100" height="34" fill="#F9E45B"/>
<path d="M9.88494 11.8182H12.5398L15.3438 18.6591H15.4631L18.267 11.8182H20.9219V22H18.8338V15.3729H18.7493L16.1143 21.9503H14.6925L12.0575 15.348H11.973V22H9.88494V11.8182ZM27.5527 18.7486V14.3636H29.6706V22H27.6373V20.6129H27.5577C27.3854 21.0604 27.0987 21.42 26.6976 21.6918C26.2999 21.9635 25.8143 22.0994 25.2409 22.0994C24.7305 22.0994 24.2814 21.9834 23.8936 21.7514C23.5059 21.5194 23.2026 21.1896 22.9838 20.7621C22.7684 20.3345 22.659 19.8224 22.6557 19.2259V14.3636H24.7736V18.848C24.7769 19.2988 24.8979 19.6551 25.1365 19.9169C25.3752 20.1787 25.695 20.3097 26.0961 20.3097C26.3513 20.3097 26.5899 20.2517 26.812 20.1357C27.034 20.0163 27.213 19.8407 27.3489 19.6087C27.4881 19.3767 27.556 19.09 27.5527 18.7486ZM37.7184 16.5412L35.7795 16.6605C35.7463 16.4948 35.6751 16.3456 35.5657 16.2131C35.4563 16.0772 35.3121 15.9695 35.1332 15.8899C34.9575 15.8071 34.747 15.7656 34.5018 15.7656C34.1737 15.7656 33.8969 15.8352 33.6715 15.9744C33.4461 16.1103 33.3335 16.2926 33.3335 16.5213C33.3335 16.7036 33.4064 16.8577 33.5522 16.9837C33.698 17.1096 33.9483 17.2107 34.3029 17.2869L35.685 17.5653C36.4274 17.7178 36.9809 17.9631 37.3455 18.3011C37.7101 18.6392 37.8924 19.0833 37.8924 19.6335C37.8924 20.134 37.7449 20.5732 37.4499 20.951C37.1583 21.3288 36.7572 21.6238 36.2468 21.8359C35.7397 22.0447 35.1547 22.1491 34.4918 22.1491C33.4809 22.1491 32.6755 21.9387 32.0756 21.5178C31.479 21.0935 31.1294 20.5168 31.0266 19.7876L33.1097 19.6783C33.1727 19.9865 33.3252 20.2218 33.5671 20.3842C33.8091 20.5433 34.119 20.6229 34.4968 20.6229C34.868 20.6229 35.1663 20.5516 35.3917 20.4091C35.6204 20.2633 35.7364 20.076 35.7397 19.8473C35.7364 19.6551 35.6552 19.4976 35.4961 19.375C35.337 19.2491 35.0917 19.1529 34.7603 19.0866L33.4379 18.8232C32.6921 18.674 32.137 18.4155 31.7724 18.0476C31.4111 17.6797 31.2305 17.2107 31.2305 16.6406C31.2305 16.1501 31.363 15.7275 31.6282 15.3729C31.8967 15.0182 32.2728 14.7448 32.7567 14.5526C33.244 14.3603 33.814 14.2642 34.467 14.2642C35.4315 14.2642 36.1905 14.468 36.744 14.8757C37.3008 15.2834 37.6256 15.8385 37.7184 16.5412ZM39.226 22V14.3636H41.3439V22H39.226ZM40.29 13.3793C39.9751 13.3793 39.705 13.2749 39.4796 13.0661C39.2575 12.8539 39.1465 12.6004 39.1465 12.3054C39.1465 12.0137 39.2575 11.7635 39.4796 11.5547C39.705 11.3426 39.9751 11.2365 40.29 11.2365C40.6048 11.2365 40.8733 11.3426 41.0953 11.5547C41.3207 11.7635 41.4334 12.0137 41.4334 12.3054C41.4334 12.6004 41.3207 12.8539 41.0953 13.0661C40.8733 13.2749 40.6048 13.3793 40.29 13.3793ZM46.4908 22.1491C45.7086 22.1491 45.0357 21.9834 44.4723 21.652C43.9122 21.3172 43.4813 20.8532 43.1797 20.2599C42.8814 19.6667 42.7322 18.9839 42.7322 18.2116C42.7322 17.4295 42.883 16.7434 43.1847 16.1534C43.4896 15.5601 43.9221 15.0978 44.4822 14.7663C45.0424 14.4316 45.7086 14.2642 46.4808 14.2642C47.147 14.2642 47.7304 14.3852 48.2308 14.6271C48.7313 14.8691 49.1274 15.2088 49.419 15.6463C49.7107 16.0838 49.8714 16.5975 49.9013 17.1875H47.9027C47.8464 16.8063 47.6972 16.4998 47.4553 16.2678C47.2166 16.0324 46.9034 15.9148 46.5156 15.9148C46.1875 15.9148 45.9008 16.0043 45.6555 16.1832C45.4136 16.3589 45.2247 16.6158 45.0888 16.9538C44.9529 17.2919 44.8849 17.7012 44.8849 18.1818C44.8849 18.669 44.9512 19.0833 45.0838 19.4247C45.2197 19.7661 45.4103 20.0263 45.6555 20.2053C45.9008 20.3842 46.1875 20.4737 46.5156 20.4737C46.7576 20.4737 46.9747 20.424 47.1669 20.3246C47.3625 20.2251 47.5232 20.081 47.6491 19.892C47.7784 19.6998 47.8629 19.4695 47.9027 19.201H49.9013C49.8681 19.7843 49.709 20.2981 49.424 20.7422C49.1423 21.183 48.7528 21.5277 48.2557 21.7763C47.7585 22.0249 47.1702 22.1491 46.4908 22.1491ZM63.521 15.3828H61.3434C61.3036 15.1011 61.2224 14.8509 61.0998 14.6321C60.9772 14.41 60.8197 14.2211 60.6275 14.0653C60.4353 13.9096 60.2132 13.7902 59.9613 13.7074C59.7127 13.6245 59.4426 13.5831 59.1509 13.5831C58.6239 13.5831 58.1649 13.714 57.7738 13.9759C57.3827 14.2344 57.0794 14.6122 56.864 15.1094C56.6486 15.6032 56.5408 16.2031 56.5408 16.9091C56.5408 17.6349 56.6486 18.2448 56.864 18.7386C57.0827 19.2325 57.3877 19.6054 57.7788 19.8572C58.1699 20.1091 58.6223 20.2351 59.136 20.2351C59.4244 20.2351 59.6912 20.197 59.9364 20.1207C60.185 20.0445 60.4054 19.9335 60.5977 19.7876C60.7899 19.6385 60.949 19.4579 61.0749 19.2457C61.2042 19.0336 61.2937 18.7917 61.3434 18.5199L63.521 18.5298C63.4646 18.9972 63.3237 19.4479 63.0984 19.8821C62.8763 20.313 62.5763 20.6991 62.1985 21.0405C61.824 21.3786 61.3765 21.647 60.8562 21.8459C60.3391 22.0414 59.7541 22.1392 59.1012 22.1392C58.1931 22.1392 57.381 21.9337 56.6651 21.5227C55.9525 21.1117 55.3891 20.5168 54.9748 19.7379C54.5638 18.959 54.3583 18.0161 54.3583 16.9091C54.3583 15.7988 54.5671 14.8542 54.9847 14.0753C55.4023 13.2964 55.9691 12.7031 56.685 12.2955C57.4009 11.8845 58.2063 11.679 59.1012 11.679C59.6912 11.679 60.238 11.7618 60.7418 11.9276C61.2489 12.0933 61.698 12.3352 62.0891 12.6534C62.4802 12.9683 62.7984 13.3544 63.0437 13.8118C63.2923 14.2692 63.4513 14.7929 63.521 15.3828ZM67.1428 17.5852V22H65.0249V11.8182H67.0831V15.7109H67.1726C67.3449 15.2602 67.6233 14.9072 68.0078 14.652C68.3923 14.3935 68.8745 14.2642 69.4545 14.2642C69.9848 14.2642 70.4472 14.3802 70.8416 14.6122C71.2393 14.8409 71.5476 15.1707 71.7663 15.6016C71.9884 16.0291 72.0978 16.5412 72.0945 17.1378V22H69.9766V17.5156C69.9799 17.045 69.8606 16.6787 69.6186 16.4169C69.38 16.1551 69.0452 16.0241 68.6143 16.0241C68.326 16.0241 68.0708 16.0855 67.8487 16.2081C67.63 16.3307 67.4576 16.5097 67.3317 16.745C67.209 16.977 67.1461 17.2571 67.1428 17.5852ZM75.9387 22.1442C75.4515 22.1442 75.0173 22.0597 74.6362 21.8906C74.255 21.7183 73.9534 21.4647 73.7314 21.13C73.5126 20.7919 73.4032 20.371 73.4032 19.8672C73.4032 19.4429 73.4811 19.0866 73.6369 18.7983C73.7927 18.5099 74.0048 18.2779 74.2733 18.1023C74.5417 17.9266 74.8467 17.794 75.188 17.7045C75.5327 17.6151 75.894 17.5521 76.2718 17.5156C76.716 17.4692 77.0739 17.4261 77.3457 17.3864C77.6175 17.3433 77.8147 17.2803 77.9373 17.1974C78.06 17.1146 78.1213 16.992 78.1213 16.8295V16.7997C78.1213 16.4848 78.0218 16.2412 77.823 16.0689C77.6274 15.8965 77.349 15.8104 76.9877 15.8104C76.6066 15.8104 76.3033 15.8949 76.0779 16.0639C75.8526 16.2296 75.7034 16.4384 75.6305 16.6903L73.6717 16.5312C73.7711 16.0672 73.9667 15.6662 74.2583 15.3281C74.55 14.9867 74.9262 14.7249 75.3869 14.5426C75.8509 14.357 76.3878 14.2642 76.9977 14.2642C77.4219 14.2642 77.8279 14.3139 78.2157 14.4134C78.6068 14.5128 78.9532 14.6669 79.2548 14.8757C79.5597 15.0845 79.8 15.353 79.9757 15.6811C80.1513 16.0059 80.2392 16.3954 80.2392 16.8494V22H78.2306V20.9411H78.171C78.0484 21.1797 77.8843 21.3902 77.6788 21.5724C77.4733 21.7514 77.2264 21.8923 76.938 21.995C76.6497 22.0945 76.3166 22.1442 75.9387 22.1442ZM76.5453 20.6825C76.8568 20.6825 77.1319 20.6212 77.3706 20.4986C77.6092 20.3726 77.7965 20.2036 77.9324 19.9915C78.0682 19.7794 78.1362 19.5391 78.1362 19.2706V18.4602C78.0699 18.5033 77.9788 18.5431 77.8627 18.5795C77.7501 18.6127 77.6225 18.6442 77.4799 18.674C77.3374 18.7005 77.1949 18.7254 77.0524 18.7486C76.9099 18.7685 76.7806 18.7867 76.6646 18.8033C76.416 18.8397 76.1989 18.8977 76.0133 18.9773C75.8277 19.0568 75.6835 19.1645 75.5808 19.3004C75.478 19.433 75.4267 19.5987 75.4267 19.7976C75.4267 20.0859 75.5311 20.3063 75.7399 20.4588C75.952 20.608 76.2205 20.6825 76.5453 20.6825ZM81.8823 22V14.3636H83.9355V15.696H84.0151C84.1543 15.2221 84.388 14.8641 84.7161 14.6222C85.0442 14.3769 85.4221 14.2543 85.8496 14.2543C85.9557 14.2543 86.07 14.2609 86.1926 14.2741C86.3153 14.2874 86.423 14.3056 86.5158 14.3288V16.2081C86.4164 16.1783 86.2788 16.1518 86.1032 16.1286C85.9275 16.1054 85.7667 16.0938 85.6209 16.0938C85.3094 16.0938 85.031 16.1617 84.7857 16.2976C84.5437 16.4302 84.3515 16.6158 84.209 16.8544C84.0698 17.093 84.0002 17.3681 84.0002 17.6797V22H81.8823ZM92.0554 14.3636V15.9545H87.4567V14.3636H92.0554ZM88.5007 12.5341H90.6186V19.6534C90.6186 19.849 90.6484 20.0014 90.7081 20.1108C90.7678 20.2169 90.8506 20.2914 90.9567 20.3345C91.0661 20.3776 91.192 20.3991 91.3345 20.3991C91.4339 20.3991 91.5334 20.3909 91.6328 20.3743C91.7322 20.3544 91.8085 20.3395 91.8615 20.3295L92.1946 21.9055C92.0885 21.9387 91.9394 21.9768 91.7472 22.0199C91.5549 22.0663 91.3213 22.0945 91.0462 22.1044C90.5357 22.1243 90.0883 22.0563 89.7038 21.9006C89.3227 21.7448 89.026 21.5028 88.8139 21.1747C88.6018 20.8466 88.4974 20.4323 88.5007 19.9318V12.5341Z" fill="#1B4D89"/>
</svg>
